<svg xmlns="http://www.w3.org/2000/svg" viewBox="0 0 512 512">
  <defs>
    <linearGradient id="bg" x1="0%" y1="0%" x2="100%" y2="100%">
      <stop offset="0%" style="stop-color:#0284c7"/>
      <stop offset="100%" style="stop-color:#0ea5e9"/>
    </linearGradient>
  </defs>
  <rect width="512" height="512" rx="112" fill="url(#bg)"/>
  <path d="M256 128c-14.4 0-25.6 11.2-25.6 25.6v76.8h-76.8c-14.4 0-25.6 11.2-25.6 25.6s11.2 25.6 25.6 25.6h76.8v76.8c0 14.4 11.2 25.6 25.6 25.6s25.6-11.2 25.6-25.6v-76.8h76.8c14.4 0 25.6-11.2 25.6-25.6s-11.2-25.6-25.6-25.6h-76.8v-76.8c0-14.4-11.2-25.6-25.6-25.6z" fill="white"/>
  <path d="M256 80c-97.2 0-176 78.8-176 176s78.8 176 176 176 176-78.8 176-176-78.8-176-176-176zm0 320c-80 0-144-64-144-144s64-144 144-144 144 64 144 144-64 144-144 144z" fill="white" opacity="0.3"/>
</svg>
